#!OML:ASF F:\VICON\USERDATA\INSTALL\rory3\rory3.ASF
:FULLY-SPECIFIED
:DEGREES
148
root -0.0740694973499807 17.780011059378232 52.62738827961104 -0.8675862663684089 -4.592779364812527 -4.577174613066209
lfemur -20.845360235129625 -1.5108138106185702 -17.718852143004895
ltibia 24.159044363502687
lfoot 2.0678639338940803 -2.5869126105095988
ltoes -2.8392686263617484
rfemur -9.777423744963539 6.481038582338341 26.07799959181154
rtibia 36.1012737261609
rfoot -1.9563800607138306 -6.425907280634636
rtoes 9.01408309389035
lowerback 9.34978429962521 1.125073747722071 3.543156679783448
upperback 0.0539052193095384 2.138715647500421 1.313596899258928
thorax -5.547891920825136 1.0221490048674768 -1.3909290303445692
lowerneck -16.107063552261664 -2.6844466987302846 -3.355431178889929
upperneck 22.19758484823055 -3.110939880878285 0.6645566299601235
head 9.542961631609115 -1.6044346479520204 0.748871423592069
lclavicle 1.4565631897065335e-16 2.35966516486724e-16
lhumerus -33.4410779074338 5.249055871466573 79.23759109373387
lradius 24.88910191072703
lwrist 3.377253022973
lhand -28.06424179029419 20.421560891152215
lfingers 7.12502
lthumb -1.8194814332948919 49.77353974571141
rclavicle 1.4665141870929226e-16 2.367530549842659e-16
rhumerus -25.999087285930287 -18.52289858935827 -75.88221903885096
rradius 18.846725020060138
rwrist 9.461355063980147
rhand -18.49941755496724 23.362558533821105
rfingers 7.12502
rthumb 7.7528616278033295 -7.553046106006264
149
root -0.07541924007063189 17.751069916117277 52.595523868093345 -0.9647405765436203 -4.797489476512556 -4.62073393398095
lfemur -20.89251335600438 -1.152755253030727 -17.820849359582116
ltibia 24.401065815246962
lfoot 1.8721580316595121 -2.1185257285904617
ltoes -2.8896112174839406
rfemur -10.469471659568667 6.28334625238291 25.983729316646627
rtibia 36.852897640080094
rfoot -2.1947432507389273 -6.986441060867276
rtoes 8.641288583737433
lowerback 9.47205429674504 1.1653350838464136 3.5581689836124393
upperback 0.078156317687405 2.205318667900839 1.3241135221122449
thorax -5.657679446480861 1.044057746377495 -1.3762560879238745
lowerneck -16.089092464585757 -2.702400318183736 -3.4114052948587417
upperneck 22.129448058104376 -3.134772059805124 0.7396343146205465
head 9.520974253101674 -1.6116614519260075 0.7758296689726127
lclavicle 1.456116676968313e-16 2.359315622503352e-16
lhumerus -33.52612044584834 5.370988198995355 79.10088452056893
lradius 25.126597812058193
lwrist 3.6142573297254668
lhand -28.127382374032038 20.195970368216933
lfingers 7.12502
lthumb -1.8520106448492375 49.730045318624356
rclavicle 1.4622306985846635e-16 2.364236557743392e-16
rhumerus -25.954234161105177 -18.37130071083862 -75.8505509887427
rradius 18.779400654694623
rwrist 9.806375127661372
rhand -18.557864574701025 23.372747818334943
rfingers 7.12502
rthumb 7.7525450194904195 -7.590993894543073
150
root -0.07381702338002244 17.72176448853515 52.73118278313522 -1.0889512290549048 -4.971185439158269 -4.610248228115922
lfemur -20.878056094004876 -0.8289217331334967 -17.97775505026716
ltibia 24.68473811034295
lfoot 1.4618683061435709 -1.8004543132009307
ltoes -2.328119497888629
rfemur -11.244786581001685 6.002577417257745 25.86053946351589
rtibia 37.58220001751473
rfoot -2.4349124735154746 -7.1450576648441295
rtoes 8.051199728208587
lowerback 9.683675780326883 1.18657404294182 3.5744982473744713
upperback 0.08579788998772947 2.2485418332644276 1.3342826765383986
thorax -5.81433809402463 1.0561176441667979 -1.374180524858096
lowerneck -16.059379780921905 -2.726672647739478 -3.4391636965733863
upperneck 22.092246932772976 -3.1703025038158144 0.8000379544286484
head 9.510154404364123 -1.6249346775191824 0.7906857638750284
lclavicle 1.4569235432369564e-16 2.359940529883767e-16
lhumerus -33.597528687782244 5.5267034800467245 78.96744811818627
lradius 25.405014655825124
lwrist 3.4832797206019235
lhand -28.127581173710393 20.293923445449195
lfingers 7.12502
lthumb -1.8798910725631717 49.82388588782375
rclavicle 1.4662958482267009e-16 2.367362573650839e-16
rhumerus -26.061937963625113 -18.400574076045068 -75.75980736695216
rradius 18.812117412125392
rwrist 9.942629744660007
rhand -18.603153708645923 23.3798291655932
rfingers 7.12502
rthumb 7.764802403306625 -7.579902584510377
151
root -0.06913892822305517 17.696861693923108 52.860262221314635 -1.1904762992636655 -4.877538994329829 -4.521133451498142
lfemur -20.965913964175897 -0.799288944243944 -18.252199424354284
ltibia 24.244311458611506
lfoot 1.06323605228014 -0.8892590417550283
ltoes -2.591671842499743
rfemur -11.988176953165778 5.526227060271792 25.603400004854343
rtibia 38.13534789240237
rfoot -2.5568030511059243 -7.267066368918038
rtoes 7.049187660744888
lowerback 9.864222175586203 1.1191522883180318 3.562510060916332
upperback 0.10015432165728082 2.1585255165584885 1.341134281304972
thorax -5.938280444419289 0.9837983418010018 -1.3535933793309816
lowerneck -16.053647785290146 -2.753253314126625 -3.4529789559878816
upperneck 22.04405677939886 -3.222539665741063 0.904503896156322
head 9.494967157947388 -1.6406904038416923 0.8141860250648318
lclavicle 1.4560569241021723e-16 2.359273221151611e-16
lhumerus -33.6366849909724 5.658576658742328 78.88451083645153
lradius 25.668399122455153
lwrist 3.930025509143538
lhand -28.3185993287884 20.141043101667076
lfingers 7.12502
lthumb -2.0287230432728443 49.70266956930449
rclavicle 1.4654299337651335e-16 2.3666969058954496e-16
rhumerus -26.13484917073464 -18.491294733667722 -75.73293247891056
rradius 18.86977374841195
rwrist 9.794641404510505
rhand -18.63138397321343 23.38155939420852
rfingers 7.12502
rthumb 7.790067701863416 -7.572659104844676
152
root -0.062162003017030065 17.680069638174235 53.024693781361776 -1.385048632324322 -4.906016812816713 -4.211405065948983
lfemur -20.87844435250312 -0.6189057119346504 -18.724880403369788
ltibia 23.714323610019495
lfoot 0.6755956103860283 -0.5987005626677591
ltoes -2.7934813710116755
rfemur -12.815636424016384 5.017612088680669 25.26197618423553
rtibia 38.6689213106435
rfoot -2.709445879034508 -7.278528682467368
rtoes 6.074288131849187
lowerback 10.046137802404962 1.1108409793008802 3.3296133008894175
upperback 0.13442087180822165 2.115920884981545 1.3116978169018447
thorax -5.994604031261875 0.9616913603798907 -1.291630168541062
lowerneck -16.068544815852686 -2.773333309580678 -3.434892468263834
upperneck 22.020168610422523 -3.251770628692222 0.9603671123105626
head 9.491888673095781 -1.6487412309339093 0.820349868667306
lclavicle 1.4565894542911672e-16 2.359677510273158e-16
lhumerus -33.592426335098956 5.713525512288196 78.84845977332478
lradius 25.862456126201433
lwrist 4.099003586150661
lhand -28.54350495388121 20.15838781929441
lfingers 7.12502
lthumb -2.16363979779645 49.90415322653883
rclavicle 1.4613259939454644e-16 2.363541301073068e-16
rhumerus -26.247072040721488 -18.75316376160958 -75.68979716942683
rradius 18.893316827791434
rwrist 9.805229685076942
rhand -18.642418620013846 23.371785659591964
rfingers 7.12502
rthumb 7.826667472396785 -7.544120813104984
